<svg xmlns="http://www.w3.org/2000/svg" viewBox="0 0 512 512">
<rect width="512" height="512" rx="112" fill="#0e1a14"/>
<rect x="164.98" y="51.20" width="45.51" height="45.51" fill="#ddf7a0"/><rect x="210.49" y="51.20" width="45.51" height="45.51" fill="#ddf7a0"/><rect x="164.98" y="96.71" width="45.51" height="45.51" fill="#ddf7a0"/><rect x="210.49" y="96.71" width="45.51" height="45.51" fill="#ddf7a0"/><rect x="256.00" y="96.71" width="45.51" height="45.51" fill="#ddf7a0"/><rect x="210.49" y="142.22" width="45.51" height="45.51" fill="#a6e36e"/><rect x="256.00" y="187.73" width="45.51" height="45.51" fill="#a6e36e"/><rect x="210.49" y="187.73" width="45.51" height="45.51" fill="#a6e36e"/><rect x="210.49" y="233.24" width="45.51" height="45.51" fill="#a6e36e"/><rect x="164.98" y="278.76" width="45.51" height="45.51" fill="#7fbf4e"/><rect x="210.49" y="278.76" width="45.51" height="45.51" fill="#7fbf4e"/><rect x="119.47" y="369.78" width="45.51" height="45.51" fill="#7fbf4e"/><rect x="164.98" y="369.78" width="45.51" height="45.51" fill="#7fbf4e"/><rect x="210.49" y="369.78" width="45.51" height="45.51" fill="#7fbf4e"/><rect x="256.00" y="369.78" width="45.51" height="45.51" fill="#7fbf4e"/><rect x="301.51" y="369.78" width="45.51" height="45.51" fill="#7fbf4e"/>
</svg>